<svg xmlns="http://www.w3.org/2000/svg" xmlns:xlink="http://www.w3.org/1999/xlink" width="200" zoomAndPan="magnify" viewBox="0 0 150 60" height="80" preserveAspectRatio="xMidYMid meet" version="1.0"><defs><g/><clipPath id="f8acba7a31"><path d="M 85.734375 11.09375 L 92.140625 11.09375 L 92.140625 31.128906 L 85.734375 31.128906 Z M 85.734375 11.09375 " clip-rule="nonzero"/></clipPath><clipPath id="90a8c5bcfa"><path d="M 85.734375 24.707031 L 112.875 24.707031 L 112.875 31.117188 L 85.734375 31.117188 Z M 85.734375 24.707031 " clip-rule="nonzero"/></clipPath></defs><rect x="-15" width="180" fill="#ffffff" y="-6" height="72" fill-opacity="1"/><rect x="-15" width="180" fill="#ffffff" y="-6" height="72" fill-opacity="1"/><g fill="#000000" fill-opacity="1"><g transform="translate(4.142578, 40.582275)"><g><path d="M 21.230469 -6.613281 C 19.601562 -5.75 16.726562 -5.222656 14.136719 -5.222656 C 8.914062 -5.222656 7.238281 -8.195312 7.238281 -11.980469 C 7.238281 -15.71875 8.914062 -18.644531 14.136719 -18.644531 C 16.726562 -18.644531 19.601562 -18.117188 21.230469 -17.253906 L 21.230469 -23.148438 C 19.171875 -23.820312 16.4375 -24.203125 13.851562 -24.203125 C 5.941406 -24.203125 1.484375 -18.738281 1.484375 -11.933594 C 1.484375 -5.128906 5.941406 0.335938 13.851562 0.335938 C 16.4375 0.335938 19.171875 -0.046875 21.230469 -0.71875 Z M 21.230469 -6.613281 "/></g></g></g><g fill="#000000" fill-opacity="1"><g transform="translate(27.481486, 40.582275)"><g><path d="M 13.707031 -5.128906 C 9.152344 -5.128906 7.238281 -8.195312 7.238281 -11.980469 C 7.238281 -15.765625 9.152344 -18.835938 13.707031 -18.835938 C 18.257812 -18.835938 20.175781 -15.765625 20.175781 -11.980469 C 20.175781 -8.195312 18.257812 -5.128906 13.707031 -5.128906 Z M 13.707031 0.238281 C 21.421875 0.238281 25.925781 -5.222656 25.925781 -11.980469 C 25.925781 -18.738281 21.421875 -24.203125 13.707031 -24.203125 C 5.992188 -24.203125 1.484375 -18.738281 1.484375 -11.980469 C 1.484375 -5.222656 5.992188 0.238281 13.707031 0.238281 Z M 13.707031 0.238281 "/></g></g></g><g fill="#000000" fill-opacity="1"><g transform="translate(54.893919, 40.582275)"><g><path d="M 8.625 -11.980469 C 8.625 -15.71875 10.304688 -18.644531 15.527344 -18.644531 C 16.152344 -18.644531 16.726562 -18.5 17.347656 -18.402344 L 17.347656 -23.960938 C 16.628906 -24.058594 15.960938 -24.203125 15.238281 -24.203125 C 7.332031 -24.203125 2.875 -18.738281 2.875 -11.933594 L 2.875 0 L 8.625 0 Z M 8.625 -11.980469 "/></g></g></g><g fill="#000000" fill-opacity="1"><g transform="translate(73.20082, 40.582275)"><g><path d="M 26.359375 -11.980469 C 26.359375 -18.785156 22.046875 -24.203125 14.617188 -24.203125 C 7.1875 -24.203125 2.875 -18.785156 2.875 -11.980469 L 2.875 0 L 8.625 0 L 8.625 -11.980469 C 8.625 -16.007812 10.542969 -18.835938 14.617188 -18.835938 C 18.691406 -18.835938 20.609375 -16.007812 20.609375 -11.980469 L 20.609375 0 L 26.359375 0 Z M 26.359375 -11.980469 "/></g></g></g><g fill="#000000" fill-opacity="1"><g transform="translate(102.050968, 40.582275)"><g><path d="M 7.765625 -15.046875 C 8.625 -17.253906 10.542969 -18.644531 13.898438 -18.644531 C 16.4375 -18.644531 18.066406 -17.828125 18.066406 -16.292969 C 18.066406 -14.761719 16.4375 -13.945312 13.753906 -13.945312 C 11.835938 -13.945312 9.488281 -14.378906 7.765625 -15.046875 Z M 22.1875 -6.183594 C 20.367188 -5.605469 16.773438 -5.273438 14.714844 -5.273438 C 9.96875 -5.273438 8.003906 -7.09375 7.429688 -9.824219 C 9.296875 -8.914062 11.597656 -8.386719 13.707031 -8.386719 C 19.695312 -8.386719 23.867188 -11.597656 23.867188 -16.292969 C 23.867188 -20.992188 19.648438 -24.203125 13.707031 -24.203125 C 5.941406 -24.203125 1.484375 -18.738281 1.484375 -11.886719 C 1.484375 -5.222656 5.75 0.289062 14.328125 0.289062 C 16.582031 0.289062 19.839844 -0.0976562 22.1875 -0.765625 Z M 22.1875 -6.183594 "/></g></g></g><g fill="#000000" fill-opacity="1"><g transform="translate(127.546446, 40.582275)"><g><path d="M 8.625 -11.980469 C 8.625 -15.71875 10.304688 -18.644531 15.527344 -18.644531 C 16.152344 -18.644531 16.726562 -18.5 17.347656 -18.402344 L 17.347656 -23.960938 C 16.628906 -24.058594 15.960938 -24.203125 15.238281 -24.203125 C 7.332031 -24.203125 2.875 -18.738281 2.875 -11.933594 L 2.875 0 L 8.625 0 Z M 8.625 -11.980469 "/></g></g></g><g clip-path="url(#f8acba7a31)"><path fill="#979694" d="M 85.734375 11.09375 L 92.140625 11.09375 L 92.140625 31.117188 L 85.734375 31.117188 Z M 85.734375 11.09375 " fill-opacity="1" fill-rule="nonzero"/></g><g clip-path="url(#90a8c5bcfa)"><path fill="#979694" d="M 85.734375 31.117188 L 85.734375 24.707031 L 112.867188 24.707031 L 112.867188 31.117188 Z M 85.734375 31.117188 " fill-opacity="1" fill-rule="nonzero"/></g></svg>